<?xml version="1.0" standalone="no"?>
<!DOCTYPE svg PUBLIC "-//W3C//DTD SVG 20010904//EN"
 "http://www.w3.org/TR/2001/REC-SVG-20010904/DTD/svg10.dtd">
<svg version="1.0" xmlns="http://www.w3.org/2000/svg"
 width="600.000000pt" height="600.000000pt" viewBox="0 0 600.000000 600.000000"
 preserveAspectRatio="xMidYMid meet">

<g transform="translate(0.000000,600.000000) scale(0.100000,-0.100000)"
fill="#ffffff" stroke="none">
<path d="m770 489 l0 -162 -150 -152 c-110 -111 -150 -158 -150 -176 0 -18 40
-64 150 -174 l150 -150 0 -162 c0 -90 -4 -163 -8 -163 -11 0 -579 555 -609
594 -50 65 -53 62 286 399 170 169 314 307 320 307 8 0 11 -49 11 -161z m417
-128 c158 -157 296 -296 305 -310 10 -14 18 -40 18 -58 0 -28 -33 -64 -306
-335 -168 -166 -312 -304 -320 -306 -12 -3 -14 23 -14 160 l-1 163 145 140
c79 77 149 150 156 163 16 32 9 41 -159 208 l-141 141 0 162 c0 136 2 162 14
159 8 -2 144 -131 303 -287z m1112 52 c15 -13 23 -34 28 -69 l5 -52 -153 -4
c-98 -3 -162 -9 -177 -17 -44 -24 -52 -65 -52 -263 0 -263 10 -276 202 -277
53 -1 108 -5 122 -11 27 -10 51 -68 44 -110 l-3 -25 -165 0 c-192 0 -249 14
-309 74 -56 56 -61 88 -61 357 0 265 5 289 68 348 54 50 118 65 283 66 125 0
150 -3 168 -17z m2611 -338 l0 -345 178 -2 177 -3 0 -70 0 -70 -261 -3 -261
-2 -6 364 c-4 227 -2 377 4 400 14 52 51 76 115 76 l54 0 0 -345z m-1874 -65
c74 -217 137 -403 140 -413 5 -16 -2 -18 -86 -15 l-91 3 -27 80 -27 80 -161 3
-161 2 -27 -85 -27 -85 -89 0 c-60 0 -90 4 -90 11 0 15 246 743 260 769 20 38
59 50 159 47 l93 -2 134 -395z m654 389 c63 -13 116 -57 131 -108 6 -21 10
-77 8 -125 -4 -88 -4 -88 -42 -120 l-37 -31 35 -19 c22 -12 42 -35 56 -63 18
-38 21 -57 17 -138 -4 -104 -16 -131 -77 -172 -52 -35 -121 -44 -336 -41
l-200 3 -3 400 c-1 220 0 406 3 412 6 17 371 18 445 2z m717 -1 c9 -15 273
-797 273 -810 0 -4 -40 -8 -88 -8 l-89 0 -25 83 -26 82 -165 3 -164 2 -6 -28
c-3 -15 -15 -53 -27 -85 l-21 -57 -91 0 c-82 0 -89 2 -83 18 4 9 60 177 126
372 65 195 125 366 131 379 20 38 82 61 170 61 51 0 79 -4 85 -12z"/>
<path d="M3035 3103 c-71 -223 -68 -200 -33 -207 17 -3 68 -6 115 -6 83 0 84
0 77 23 -4 12 -29 91 -55 176 -27 85 -50 156 -53 158 -2 3 -26 -62 -51 -144z"/>
<path d="M3720 3165 l0 -105 79 0 c105 0 137 12 152 57 12 39 6 118 -12 139
-8 10 -40 14 -115 14 l-104 0 0 -105z"/>
<path d="M3768 2933 l-48 -4 0 -105 0 -104 114 0 c90 0 118 3 130 15 34 34 33
143 -1 176 -20 20 -111 30 -195 22z"/>
<path d="M4532 3082 c-29 -92 -52 -173 -52 -179 0 -10 29 -13 110 -13 61 0
110 3 110 6 0 14 -103 339 -109 346 -4 4 -30 -68 -59 -160z"/>
</g>
</svg>
