<svg viewBox="-0.4 4 1866.1 578" xmlns="http://www.w3.org/2000/svg" width="2500" height="769"><path d="M-.4 240.7h137.8C162.2 109.5 276.2 4 421.7 4c165.4 0 281.4 117.9 281.4 295.7 0 19-1.9 34.2-3.8 47.5H254.4c20.9 80.8 87.5 128.3 167.3 128.3 68.4 0 119.8-26.6 160.7-73.2l81.8 75.1C609.9 539.2 529.1 582 421.7 582c-145.5 0-259.5-103.6-284.2-234.8H-.4zm585.6 0c-5.7-33.3-20.9-63.7-42.8-85.6-28.5-28.5-70.3-46.6-120.7-46.6S330.4 125.6 300 156c-20.9 20.9-38 49.4-46.6 84.6h331.8zM785.8 7.8h119.8v456.3h216.8v114.1H907.5c-78.9 0-121.7-42.8-121.7-121.7zM1145.1 293c0-155 126.4-289 293.8-289 148.3 0 264.3 104.6 289 236.7h137.8v106.5h-137.8c-25.7 131.2-141.7 234.8-289 234.8-168.3 0-293.8-133.1-293.8-289zm293.8 176.8c99.8 0 174-76.1 174-175.9 0-98.9-76-177.8-174-177.8-99.8 0-174 76.1-174 176.8 0 98 76.1 176.9 174 176.9z" fill="#003933"/></svg>