<?xml version="1.0" encoding="UTF-8"?>
<svg version="1.1" xmlns="http://www.w3.org/2000/svg" width="960" height="746">
<path d="M0 0 C1.00605286 -0.00705963 2.01210571 -0.01411926 3.04864502 -0.02139282 C44.67082945 -0.24716881 44.67082945 -0.24716881 63.18359375 3.203125 C64.23466309 3.38584961 65.28573242 3.56857422 66.36865234 3.75683594 C93.19444422 8.50800861 119.80715338 16.98048229 144.18359375 29.203125 C144.9626709 29.58791016 145.74174805 29.97269531 146.54443359 30.36914062 C162.8685107 38.48304025 178.60708678 47.69673055 192.51953125 59.53515625 C195.00756193 61.41002111 195.00756193 61.41002111 197.64453125 61.25390625 C200.99671054 59.86661974 203.61738152 57.81263426 206.43359375 55.578125 C231.54739025 36.52792575 260.31720451 22.9194178 290.18359375 13.203125 C291.0746582 12.91211914 291.96572266 12.62111328 292.88378906 12.32128906 C321.20094894 3.25253435 350.32011744 -0.22841924 379.93359375 -0.171875 C381.54683029 -0.17105927 381.54683029 -0.17105927 383.19265747 -0.17022705 C400.84144419 -0.12932452 417.82132118 0.81732618 435.18359375 4.203125 C436.27994141 4.41211426 437.37628906 4.62110352 438.50585938 4.83642578 C462.72561812 9.59413295 485.99239999 17.43098633 508.18359375 28.203125 C508.88484375 28.53666992 509.58609375 28.87021484 510.30859375 29.21386719 C549.10082988 47.67324091 585.9959892 75.95779597 612.18359375 110.203125 C612.97765625 111.2034375 613.77171875 112.20375 614.58984375 113.234375 C655.78944823 165.36350778 678.07175227 230.29098498 677.55859375 296.640625 C677.55211319 298.24247147 677.55211319 298.24247147 677.54550171 299.87667847 C677.47150215 315.5045967 677.03292005 330.79825359 674.18359375 346.203125 C673.93416016 347.63325928 673.93416016 347.63325928 673.6796875 349.09228516 C668.19735964 380.01159902 657.96391765 409.51323015 643.18359375 437.203125 C642.8076709 437.91629883 642.43174805 438.62947266 642.04443359 439.36425781 C636.14274093 450.51055743 629.61609951 461.01401322 622.18359375 471.203125 C621.77141602 471.76837891 621.35923828 472.33363281 620.93457031 472.91601562 C611.14387012 486.21748261 600.19194773 498.36756533 588.55859375 510.078125 C587.70031982 510.94566406 586.8420459 511.81320312 585.95776367 512.70703125 C580.00985181 518.6260505 573.76289527 523.99943657 567.18359375 529.203125 C566.57499512 529.69135742 565.96639648 530.17958984 565.33935547 530.68261719 C556.96244203 537.37462571 548.23356948 543.4607431 539.18359375 549.203125 C538.56097656 549.59967285 537.93835938 549.9962207 537.296875 550.40478516 C490.67352563 579.7606724 436.06273604 594.75907524 381.12109375 594.515625 C379.79072083 594.51239227 379.79072083 594.51239227 378.43347168 594.50909424 C363.176965 594.4500293 348.26527337 593.67805551 333.18359375 591.203125 C332.07322754 591.02571777 330.96286133 590.84831055 329.81884766 590.66552734 C282.17653021 582.73746916 235.7024678 562.73931971 198.18359375 532.203125 C195.51829125 533.47096425 193.15132834 534.85091844 190.77734375 536.6015625 C175.71780006 547.55192492 160.0101215 557.35747256 143.13916016 565.28076172 C141.84775215 565.88986777 140.56080451 566.5085328 139.27880859 567.13720703 C114.82203844 579.12703481 87.99628168 586.85325546 61.18359375 591.203125 C60.12172852 591.37811523 59.05986328 591.55310547 57.96582031 591.73339844 C-17.3956842 603.53419217 -97.53210586 583.99734996 -159.37890625 539.578125 C-166.82207707 534.1232823 -173.89893132 528.30566453 -180.81640625 522.203125 C-181.59242188 521.53796875 -182.3684375 520.8728125 -183.16796875 520.1875 C-195.99206329 508.99396043 -208.56399982 496.81540245 -218.81640625 483.203125 C-219.74002888 482.01886273 -220.66457763 480.83532241 -221.58984375 479.65234375 C-250.55477782 442.25010586 -269.86453861 398.60476073 -278.81640625 352.203125 C-279.13399902 350.58712402 -279.13399902 350.58712402 -279.45800781 348.93847656 C-282.70610127 331.59643717 -283.20454409 314.42459092 -283.25390625 296.828125 C-283.26017029 295.78551514 -283.26643433 294.74290527 -283.27288818 293.66870117 C-283.34638433 274.32512504 -281.71927917 255.12933274 -277.56640625 236.203125 C-277.35516113 235.22569336 -277.14391602 234.24826172 -276.92626953 233.24121094 C-263.32066255 172.15760284 -230.80597481 114.04691141 -182.81640625 73.203125 C-181.87023437 72.36910156 -180.9240625 71.53507812 -179.94921875 70.67578125 C-165.13055051 57.71444887 -148.93628199 46.87758704 -131.81640625 37.203125 C-130.98270508 36.73132812 -130.14900391 36.25953125 -129.29003906 35.7734375 C-90.61156928 14.14098318 -44.55890199 0.20842421 0 0 Z " fill="#F79D1A" transform="translate(282.81640625,-0.203125)"/>
<path d="M0 0 C1.00605286 -0.00705963 2.01210571 -0.01411926 3.04864502 -0.02139282 C44.67082945 -0.24716881 44.67082945 -0.24716881 63.18359375 3.203125 C64.23466309 3.38584961 65.28573242 3.56857422 66.36865234 3.75683594 C93.19444422 8.50800861 119.80715338 16.98048229 144.18359375 29.203125 C144.9626709 29.58791016 145.74174805 29.97269531 146.54443359 30.36914062 C164.52946372 39.30861869 181.20157597 50.06730283 197.18359375 62.203125 C195.68884256 65.91935725 193.64478896 67.65894811 190.49609375 70.078125 C173.65053006 83.52811695 159.16495289 99.04702046 146.18359375 116.203125 C145.73129395 116.79319336 145.27899414 117.38326172 144.81298828 117.99121094 C103.57831322 171.88758068 83.25326293 238.44963744 85.09814453 305.96679688 C85.16971175 308.67735407 85.20109742 311.38251822 85.2109375 314.09375 C85.55510537 336.54756321 90.04536343 360.93936676 97.18359375 382.203125 C97.50199219 383.17862305 97.82039063 384.15412109 98.1484375 385.15917969 C102.74585397 399.19140413 107.70267733 412.92711647 114.18359375 426.203125 C114.59915527 427.06405762 115.0147168 427.92499023 115.44287109 428.81201172 C127.51025729 453.57269496 142.85248525 476.45986328 161.71484375 496.546875 C163.69611377 498.67862123 165.57566402 500.84102594 167.43359375 503.078125 C176.1879466 513.15825725 186.71171991 521.97366905 197.18359375 530.203125 C182.88939352 544.90573095 163.66904279 555.48995816 145.26025391 564.21255493 C143.27158251 565.16115423 141.292347 566.12706913 139.31445312 567.09790039 C129.40151426 571.92043185 119.40441463 575.89460379 108.93359375 579.328125 C107.7753862 579.71132401 107.7753862 579.71132401 106.59378052 580.1022644 C91.66234825 585.01278074 76.72415653 588.72015306 61.18359375 591.203125 C60.1260791 591.37666504 59.06856445 591.55020508 57.97900391 591.72900391 C-17.38651929 603.53661958 -97.52782594 584.00042386 -159.37890625 539.578125 C-166.82207707 534.1232823 -173.89893132 528.30566453 -180.81640625 522.203125 C-181.59242188 521.53796875 -182.3684375 520.8728125 -183.16796875 520.1875 C-195.99206329 508.99396043 -208.56399982 496.81540245 -218.81640625 483.203125 C-219.74002888 482.01886273 -220.66457763 480.83532241 -221.58984375 479.65234375 C-250.55477782 442.25010586 -269.86453861 398.60476073 -278.81640625 352.203125 C-279.13399902 350.58712402 -279.13399902 350.58712402 -279.45800781 348.93847656 C-282.70610127 331.59643717 -283.20454409 314.42459092 -283.25390625 296.828125 C-283.26017029 295.78551514 -283.26643433 294.74290527 -283.27288818 293.66870117 C-283.34638433 274.32512504 -281.71927917 255.12933274 -277.56640625 236.203125 C-277.35516113 235.22569336 -277.14391602 234.24826172 -276.92626953 233.24121094 C-263.32066255 172.15760284 -230.80597481 114.04691141 -182.81640625 73.203125 C-181.87023437 72.36910156 -180.9240625 71.53507812 -179.94921875 70.67578125 C-165.13055051 57.71444887 -148.93628199 46.87758704 -131.81640625 37.203125 C-130.98270508 36.73132812 -130.14900391 36.25953125 -129.29003906 35.7734375 C-90.61156928 14.14098318 -44.55890199 0.20842421 0 0 Z " fill="#EB001A" transform="translate(282.81640625,-0.203125)"/>
<path d="M0 0 C3.43223413 1.95622181 6.143011 4.47344308 8.96484375 7.19921875 C10.11901686 8.29118411 11.27396213 9.38233391 12.4296875 10.47265625 C13.26089111 11.2610791 13.26089111 11.2610791 14.10888672 12.06542969 C16.03686431 13.87203191 18.02142898 15.60486323 20.02734375 17.32421875 C26.45706731 22.90473354 32.12387045 29.05099309 37.65234375 35.51171875 C38.45414063 36.424375 39.2559375 37.33703125 40.08203125 38.27734375 C71.9786246 74.85697984 93.78502229 119.33727529 104.65234375 166.51171875 C104.84666992 167.34977051 105.04099609 168.18782227 105.24121094 169.05126953 C106.55638867 174.84333065 107.66436244 180.65542371 108.65234375 186.51171875 C108.8033252 187.3826416 108.95430664 188.25356445 109.10986328 189.15087891 C111.49669095 203.5156163 111.94043743 217.79734788 111.96484375 232.32421875 C111.96842896 233.17696381 111.97201416 234.02970886 111.97570801 234.90829468 C112.0827139 282.20318972 100.14612066 329.86308494 77.65234375 371.51171875 C77.26046875 372.24471191 76.86859375 372.97770508 76.46484375 373.73291016 C57.59025219 408.9089556 31.31966826 441.06062084 -0.34765625 465.51171875 C-21.6510288 455.88611234 -40.56230208 430.8749679 -54.34765625 412.51171875 C-54.75693359 411.96999023 -55.16621094 411.42826172 -55.58789062 410.87011719 C-73.67466841 386.7689761 -87.44616892 360.41505262 -97.44726562 332.02929688 C-98.19384989 329.941776 -98.99093476 327.8723961 -99.80078125 325.80859375 C-109.64198564 300.52043564 -113.84619149 271.55260892 -114.34765625 244.51171875 C-114.37875488 243.42922852 -114.40985352 242.34673828 -114.44189453 241.23144531 C-115.73899949 193.34936975 -106.51296459 146.70554802 -85.34765625 103.51171875 C-84.90583008 102.60357422 -84.46400391 101.69542969 -84.00878906 100.75976562 C-66.34176815 64.78641615 -41.17033865 33.17650179 -11.34765625 6.51171875 C-10.43113281 5.68414062 -9.51460938 4.8565625 -8.5703125 4.00390625 C-7.79558594 3.34648438 -7.02085937 2.6890625 -6.22265625 2.01171875 C-5.25972656 1.191875 -5.25972656 1.191875 -4.27734375 0.35546875 C-2.34765625 -0.48828125 -2.34765625 -0.48828125 0 0 Z " fill="#FE5900" transform="translate(481.34765625,64.48828125)"/>
<path d="M0 0 C1.12426392 0.01244751 1.12426392 0.01244751 2.27124023 0.02514648 C11.66920898 0.31191261 17.2753013 3.58405236 23.99609375 10.046875 C25.52155272 11.65392937 25.52155272 11.65392937 27.625 11.4375 C28.82461908 10.39077354 29.98530321 9.29917146 31.125 8.1875 C39.43270787 0.88678703 47.74404008 -0.39479176 58.4921875 0.0625 C67.31470465 0.70677327 73.60144552 3.64962105 79.87109375 9.8515625 C85.58198418 18.27162813 86.18158305 26.36096735 86.015625 36.3203125 C86.00996521 37.61572968 86.00430542 38.91114685 85.99847412 40.24581909 C85.98335107 43.65564019 85.94418942 47.06475733 85.8996582 50.4743042 C85.85841339 53.96714765 85.84040143 57.46010715 85.8203125 60.953125 C85.77767794 67.78156472 85.70744169 74.60942588 85.625 81.4375 C79.025 81.4375 72.425 81.4375 65.625 81.4375 C65.61041748 79.92921631 65.59583496 78.42093262 65.58081055 76.86694336 C65.5227091 71.25521489 65.4454761 65.64388269 65.36254883 60.0324707 C65.32935534 57.60675502 65.30130616 55.18096314 65.27856445 52.75512695 C65.24491669 49.26220316 65.19259369 45.76997415 65.13671875 42.27734375 C65.13032883 41.19791 65.1239389 40.11847626 65.11735535 39.0063324 C65.00213189 33.065744 64.54182086 28.66042003 61.625 23.4375 C57.0367204 19.07863438 53.19585688 18.06378898 47.0390625 18.1640625 C42.33249134 18.69716927 38.2821935 20.37319249 35.2734375 24.12109375 C32.47083323 28.80890305 31.51857391 32.92920191 31.41967773 38.29785156 C31.39973251 39.25854553 31.37978729 40.2192395 31.35923767 41.20904541 C31.34252518 42.23834167 31.32581268 43.26763794 31.30859375 44.328125 C31.2774221 45.91775055 31.2774221 45.91775055 31.24562073 47.53948975 C31.18027814 50.92209438 31.12131119 54.30477612 31.0625 57.6875 C31.01930025 59.98177878 30.97568549 62.27604979 30.93164062 64.5703125 C30.82461235 70.19262948 30.72330167 75.81502395 30.625 81.4375 C24.685 81.4375 18.745 81.4375 12.625 81.4375 C12.61041748 79.99503906 12.59583496 78.55257812 12.58081055 77.06640625 C12.52263828 71.69132263 12.44540617 66.31664963 12.36254883 60.94189453 C12.32938847 58.62002245 12.30132913 56.29807149 12.27856445 53.97607422 C12.24485528 50.62954232 12.19252991 47.28372756 12.13671875 43.9375 C12.13032883 42.9069751 12.1239389 41.8764502 12.11735535 40.81469727 C11.97515791 33.77160145 11.25799107 27.77262202 6.75 22.0625 C2.06315458 18.47844174 -2.55111807 17.71781877 -8.375 18.4375 C-12.99944158 19.97898053 -16.32330092 21.59461967 -19.375 25.4375 C-21.0367245 28.96554045 -21.6359876 31.80050059 -21.69384766 35.68676758 C-21.71371735 36.70744827 -21.73358704 37.72812897 -21.75405884 38.77973938 C-21.76561005 39.8694957 -21.77716125 40.95925201 -21.7890625 42.08203125 C-21.80842865 43.2069548 -21.8277948 44.33187836 -21.8477478 45.4908905 C-21.9074371 49.07718366 -21.95388694 52.66350909 -22 56.25 C-22.03818953 58.68425864 -22.07724183 61.11850392 -22.1171875 63.55273438 C-22.21313014 69.51421407 -22.29720101 75.47575703 -22.375 81.4375 C-28.645 81.4375 -34.915 81.4375 -41.375 81.4375 C-41.375 55.0375 -41.375 28.6375 -41.375 1.4375 C-35.105 1.4375 -28.835 1.4375 -22.375 1.4375 C-22.045 3.7475 -21.715 6.0575 -21.375 8.4375 C-20.529375 7.674375 -19.68375 6.91125 -18.8125 6.125 C-13.24618182 1.10173725 -7.22994784 -0.10322691 0 0 Z " fill="#000000" transform="translate(88.375,662.5625)"/>
<path d="M0 0 C5.94 0 11.88 0 18 0 C18 36.63 18 73.26 18 111 C12.06 111 6.12 111 0 111 C-0.33 109.02 -0.66 107.04 -1 105 C-1.56847656 105.40992188 -2.13695312 105.81984375 -2.72265625 106.2421875 C-12.51121693 113.07293602 -21.94062703 114.51626636 -33.77734375 112.53515625 C-43.62416834 109.9062252 -52.28002953 104.51445986 -58 96 C-64.68746303 83.47620559 -66.61126631 69.18053471 -62.4375 55.375 C-58.49878919 45.44501078 -51.03708783 37.14393959 -41.3125 32.6875 C-32.01748033 28.77467644 -19.76432114 28.08511799 -10.25 31.75 C-6.54172493 33.43072899 -4.34562348 35.32350121 -1 38 C-0.67 25.46 -0.34 12.92 0 0 Z M-39 53 C-44.77943339 60.59582674 -45.93188161 67.63400002 -45 77 C-43.31460366 84.20582625 -40.22558522 88.99500569 -34 93 C-28.13630635 96.38290018 -22.61554689 96.8305232 -16 96 C-9.3727533 94.16102578 -4.7046914 89.66944858 -1 84 C2.12127307 77.43567312 2.7798131 71.04281872 1 64 C-1.37378314 57.5217472 -4.1389903 52.71948693 -10 49 C-20.07705829 44.54144543 -30.83199415 44.83199415 -39 53 Z " fill="#000000" transform="translate(896,633)"/>
<path d="M0 0 C2.77545488 1.91769841 5.2883772 3.93236021 7.76953125 6.22265625 C8.09953125 3.58265625 8.42953125 0.94265625 8.76953125 -1.77734375 C14.70953125 -1.77734375 20.64953125 -1.77734375 26.76953125 -1.77734375 C26.76953125 24.62265625 26.76953125 51.02265625 26.76953125 78.22265625 C20.82953125 78.22265625 14.88953125 78.22265625 8.76953125 78.22265625 C8.27453125 74.75765625 8.27453125 74.75765625 7.76953125 71.22265625 C6.90328125 71.98578125 6.03703125 72.74890625 5.14453125 73.53515625 C-3.36276051 80.6012127 -12.53911851 81.02253598 -23.23046875 80.22265625 C-34.60854253 77.86625044 -43.65592072 71.82053658 -50.23046875 62.22265625 C-56.6055868 49.70304458 -57.94441169 37.64960202 -54.21484375 24.0859375 C-52.73393413 19.77837104 -50.72030116 16.02416693 -48.23046875 12.22265625 C-47.65296875 11.33578125 -47.07546875 10.44890625 -46.48046875 9.53515625 C-43.119917 6.08125584 -39.38721459 3.63475837 -35.23046875 1.22265625 C-34.51246094 0.80371094 -33.79445312 0.38476562 -33.0546875 -0.046875 C-23.64873412 -4.64425809 -9.29517094 -5.11509407 0 0 Z M-33.23046875 22.22265625 C-38.07698771 29.1913196 -38.14422139 37.0084007 -37.23046875 45.22265625 C-35.52027952 52.48027178 -31.28044242 57.05515971 -25.23046875 61.22265625 C-19.50086905 64.15111832 -12.11762814 64.33613072 -5.953125 62.5703125 C0.42024417 59.72003416 4.07420641 54.99168681 7.64453125 49.16015625 C10.3879257 41.82240243 9.94042065 32.80359509 6.76953125 25.72265625 C3.24826794 19.67483679 -1.38182818 16.30317509 -7.85546875 13.84765625 C-17.64378226 12.0350056 -26.65940865 14.49400007 -33.23046875 22.22265625 Z " fill="#000000" transform="translate(245.23046875,665.77734375)"/>
<path d="M0 0 C1.94331271 1.56618581 3.39256369 3.07107643 5 5 C5.33 2.36 5.66 -0.28 6 -3 C11.94 -3 17.88 -3 24 -3 C24 23.4 24 49.8 24 77 C18.06 77 12.12 77 6 77 C5.505 73.535 5.505 73.535 5 70 C4.61070312 70.39832031 4.22140625 70.79664063 3.8203125 71.20703125 C-2.7084148 77.38976609 -9.43375955 79.10548437 -18.3125 79.4375 C-30.81837988 79.08397689 -40.39958726 74.94158716 -48.96484375 65.93359375 C-57.30769062 56.07386563 -59.57514641 44.618406 -58.81640625 31.9296875 C-57.49291699 21.47821559 -53.1389774 11.95500999 -45.3515625 4.75390625 C-32.91076803 -4.52502518 -13.92935859 -8.68503832 0 0 Z M-34 20 C-39.38977215 27.50005331 -40.11091902 34.96452527 -39 44 C-37.27626275 51.25896804 -33.05682168 55.82778624 -27 60 C-21.2704003 62.92846207 -13.88715939 63.11347447 -7.72265625 61.34765625 C-1.34928708 58.49737791 2.30467516 53.76903056 5.875 47.9375 C8.61839445 40.59974618 8.1708894 31.58093884 5 24.5 C1.47873669 18.45218054 -3.15135943 15.08051884 -9.625 12.625 C-18.52837566 10.97622673 -27.92091259 12.72617865 -34 20 Z " fill="#000000" transform="translate(731,667)"/>
<path d="M0 0 C10.30323637 6.82507378 14.08449133 16.33796531 17 28 C17 33.61 17 39.22 17 45 C-2.14 45 -21.28 45 -41 45 C-39.68 47.97 -38.36 50.94 -37 54 C-36.67 54.99 -36.34 55.98 -36 57 C-34.35369807 58.11935073 -34.35369807 58.11935073 -32 59 C-30.2675 59.804375 -30.2675 59.804375 -28.5 60.625 C-19.93128751 63.72499803 -11.67469691 62.39151174 -3.375 59.16796875 C-0.94830897 58.07188647 -0.94830897 58.07188647 1.125 56.36328125 C3 55 3 55 6 55 C8.04296875 57.625 8.04296875 57.625 10.1875 61 C10.73954102 61.85851562 10.73954102 61.85851562 11.30273438 62.734375 C12.21125071 64.15024462 13.10686477 65.57437797 14 67 C6.11700079 75.44910328 -4.01910324 78.38243061 -15.28125 79.25390625 C-27.27757235 79.66528456 -38.80403297 77.08021369 -48 69 C-57.80195144 58.8472829 -60.34523209 47.36477588 -60.21484375 33.6015625 C-59.51816308 21.92266109 -54.77554089 11.84633268 -46.3203125 3.79296875 C-34.01367071 -5.716709 -13.63842684 -7.84432393 0 0 Z M-33.8125 15.75 C-37.66630407 19.71391276 -40 23.31072624 -40 29 C-27.13 29 -14.26 29 -1 29 C-2.09265248 22.44408512 -3.61452255 19.32100509 -8.3125 14.75 C-16.82561965 9.20657325 -25.57850803 10.62662722 -33.8125 15.75 Z " fill="#000000" transform="translate(504,667)"/>
<path d="M0 0 C1.0725 0.763125 2.145 1.52625 3.25 2.3125 C1.88408831 5.85493452 0.34068516 9.23877929 -1.375 12.625 C-2.04402344 13.94951172 -2.04402344 13.94951172 -2.7265625 15.30078125 C-3.06429687 15.96464844 -3.40203125 16.62851562 -3.75 17.3125 C-4.9875 16.879375 -6.225 16.44625 -7.5 16 C-22.43057246 10.79052844 -22.43057246 10.79052844 -37.6875 12.625 C-40.95304787 14.11761123 -40.95304787 14.11761123 -42.75 17.3125 C-42.4378236 19.95882287 -42.4378236 19.95882287 -41.75 22.3125 C-36.13457085 24.25331653 -30.71615266 25.52750227 -24.8125 26.25 C-15.7722863 27.44881095 -6.47007419 29.75722327 0.25 36.3125 C4.23154955 41.65615861 5.4983407 46.6470357 5.25 53.3125 C4.22878892 59.44880377 2.31356659 65.37789638 -2.75 69.3125 C-17.71429273 78.40030405 -33.56661012 79.38372035 -50.3984375 75.37890625 C-55.84101522 73.64717698 -60.79014225 71.11945246 -65.75 68.3125 C-65.17176904 64.25024452 -63.85882263 61.46487654 -61.6875 58 C-61.13964844 57.11699219 -60.59179688 56.23398437 -60.02734375 55.32421875 C-59.60582031 54.66035156 -59.18429687 53.99648438 -58.75 53.3125 C-55.87562805 53.92934531 -53.57328288 54.84107445 -51 56.25 C-42.05104915 60.74901551 -30.75937567 62.54459225 -21.0390625 59.44921875 C-18.74689787 58.3114114 -16.57716071 57.13966071 -14.75 55.3125 C-14.70907063 52.97952567 -14.70758277 50.64544775 -14.75 48.3125 C-21.17640037 45.98313637 -27.57549875 44.83136283 -34.3125 43.875 C-44.33553438 42.39569965 -52.761489 40.13432938 -59.75 32.3125 C-63.45073773 26.34356818 -63.55014145 20.21027113 -62.75 13.3125 C-60.70391929 5.72012502 -55.08917317 0.97731831 -48.59375 -3.01171875 C-34.94171041 -9.3280033 -12.71263339 -7.72857851 0 0 Z " fill="#000000" transform="translate(352.75,668.6875)"/>
<path d="M0 0 C5.94 0 11.88 0 18 0 C18 7.92 18 15.84 18 24 C27.24 24 36.48 24 46 24 C46 29.61 46 35.22 46 41 C36.76 41 27.52 41 18 41 C18.07406327 46.6058231 18.15694876 52.21006898 18.26245117 57.81518555 C18.29565962 59.72102631 18.32370425 61.62696446 18.34643555 63.53295898 C18.38005668 66.27630015 18.43237595 69.01875222 18.48828125 71.76171875 C18.49467117 72.61086349 18.5010611 73.46000824 18.50764465 74.33488464 C18.62257801 78.98265398 18.87967498 82.29436116 22 86 C30.00526137 89.1745002 36.29660599 87.18388964 44 84 C46.45417612 89.673142 48.46246904 94.81839396 49 101 C47.43979133 101.65134925 45.87671421 102.29582964 44.3125 102.9375 C43.00732422 103.47697266 43.00732422 103.47697266 41.67578125 104.02734375 C32.01755627 107.53814378 20.79949856 107.28728984 11.34375 103.32421875 C5.55183423 100.05178634 2.91124541 95.53463747 0.64498901 89.37554932 C-0.54026952 85.01014149 -0.3650803 80.65000752 -0.29296875 76.15625 C-0.28872391 75.14655151 -0.28447906 74.13685303 -0.28010559 73.09655762 C-0.26342214 69.89742443 -0.22578903 66.69894017 -0.1875 63.5 C-0.17243982 61.32032165 -0.15875375 59.14063335 -0.14648438 56.9609375 C-0.11355245 51.64037807 -0.06184181 46.32029875 0 41 C-5.28 41 -10.56 41 -16 41 C-16 35.39 -16 29.78 -16 24 C-10.72 24 -5.44 24 0 24 C0 16.08 0 8.16 0 0 Z " fill="#000000" transform="translate(385,640)"/>
<path d="M0 0 C-0.56444825 4.34863652 -2.15427964 7.17827655 -4.5625 10.8125 C-5.20316406 11.78832031 -5.84382812 12.76414062 -6.50390625 13.76953125 C-6.99761719 14.50558594 -7.49132812 15.24164062 -8 16 C-8.82242188 15.57847656 -9.64484375 15.15695312 -10.4921875 14.72265625 C-19.05383796 10.52092248 -26.30315063 7.35344519 -35.75 10.1875 C-43.02898908 13.08371749 -46.76675548 16.18686205 -50.0234375 23.3515625 C-52.60717548 30.35865991 -52.51699574 36.97234852 -50 44 C-47.38464697 49.54533499 -44.48114618 53.02111621 -39 56 C-32.10946641 58.29684453 -23.57265818 58.13487783 -16.9375 55.125 C-15.62224545 54.4217946 -14.30972614 53.71344923 -13 53 C-11.34059233 52.31546483 -9.67533179 51.64458173 -8 51 C-6.6583797 53.0992764 -5.32663161 55.2037832 -4 57.3125 C-3.6184375 57.90740234 -3.236875 58.50230469 -2.84375 59.11523438 C0 63.66015625 0 63.66015625 0 67 C-12.70960888 74.55449649 -24.95347429 77.10637977 -39.60546875 74.3125 C-50.07686605 71.36626864 -58.86498615 66.15673709 -65 57 C-71.38247129 44.43347621 -72.94134044 31.61161206 -69.09765625 17.953125 C-65.0039356 6.93941392 -57.80914549 -0.44622943 -47.25 -5.375 C-32.25219855 -11.76295247 -13.05365998 -9.22507256 0 0 Z " fill="#000000" transform="translate(665,671)"/>
<path d="M0 0 C0.93134766 0.00902344 1.86269531 0.01804687 2.82226562 0.02734375 C5.1109436 0.05081737 7.39908672 0.08365271 9.6875 0.125 C6.61232916 12.79470387 6.61232916 12.79470387 4.6875 18.125 C3.6975 17.96 2.7075 17.795 1.6875 17.625 C-5.09501149 16.69326105 -10.15501183 16.60643533 -16.3125 20.125 C-16.9725 20.125 -17.6325 20.125 -18.3125 20.125 C-22.1444399 28.33629978 -22.61864336 37.24572622 -22.7265625 46.1640625 C-22.74592865 47.17093109 -22.7652948 48.17779968 -22.7852478 49.21517944 C-22.84445608 52.39337002 -22.89119152 55.571598 -22.9375 58.75 C-22.97573397 60.92058767 -23.01478874 63.09116104 -23.0546875 65.26171875 C-23.15010849 70.54936143 -23.23435332 75.83707496 -23.3125 81.125 C-29.2525 81.125 -35.1925 81.125 -41.3125 81.125 C-41.3125 54.725 -41.3125 28.325 -41.3125 1.125 C-35.3725 1.125 -29.4325 1.125 -23.3125 1.125 C-22.9825 3.435 -22.6525 5.745 -22.3125 8.125 C-21.64154297 7.51011719 -21.64154297 7.51011719 -20.95703125 6.8828125 C-20.35246094 6.34398437 -19.74789062 5.80515625 -19.125 5.25 C-18.53332031 4.71632813 -17.94164062 4.18265625 -17.33203125 3.6328125 C-11.85206032 -0.45861648 -6.57550754 -0.12082205 0 0 Z " fill="#000000" transform="translate(818.3125,662.875)"/>
<path d="M0 0 C0.88365234 0.00902344 1.76730469 0.01804687 2.67773438 0.02734375 C4.84777359 0.05080363 7.01767247 0.08667135 9.1875 0.125 C8.69262525 5.00081861 8.07762131 9.08987953 6.125 13.625 C5.76277344 14.4809375 5.40054688 15.336875 5.02734375 16.21875 C4.75019531 16.8478125 4.47304688 17.476875 4.1875 18.125 C3.1975 17.96 2.2075 17.795 1.1875 17.625 C-6.42030498 16.59733279 -11.43316967 16.37177348 -17.8125 21.125 C-20.8862149 26.04294384 -21.91663053 30.44438411 -22.01782227 36.16894531 C-22.03776749 37.16968079 -22.05771271 38.17041626 -22.07826233 39.20147705 C-22.10333107 40.81104279 -22.10333107 40.81104279 -22.12890625 42.453125 C-22.14968735 43.55726746 -22.17046844 44.66140991 -22.19187927 45.79901123 C-22.25723646 49.32427783 -22.31619564 52.84961859 -22.375 56.375 C-22.41819836 58.76563265 -22.46181307 61.15625782 -22.50585938 63.546875 C-22.61290376 69.4061741 -22.71421038 75.26554776 -22.8125 81.125 C-28.7525 81.125 -34.6925 81.125 -40.8125 81.125 C-40.8125 54.725 -40.8125 28.325 -40.8125 1.125 C-34.8725 1.125 -28.9325 1.125 -22.8125 1.125 C-22.4825 3.435 -22.1525 5.745 -21.8125 8.125 C-21.14154297 7.51011719 -21.14154297 7.51011719 -20.45703125 6.8828125 C-19.85246094 6.34398437 -19.24789062 5.80515625 -18.625 5.25 C-18.03332031 4.71632813 -17.44164062 4.18265625 -16.83203125 3.6328125 C-11.48122052 -0.36218352 -6.41939718 -0.12446259 0 0 Z " fill="#000000" transform="translate(579.8125,662.875)"/>
</svg>